<svg xmlns="http://www.w3.org/2000/svg" width="78" height="65" viewBox="0 0 78 65">
    <g fill="#8D9AA8" fill-rule="nonzero">
        <path d="M77.248 17.122L70.32 1.736a1.246 1.246 0 0 0-1.136-.734H59.14c-.49 0-.933.287-1.135.734l-6.928 15.386a1.245 1.245 0 0 0 1.135 1.756h10.706v43.094h-9.674v-4.205h.814c1.67 0 3.03-1.36 3.03-3.03v-14.99a2.461 2.461 0 0 0-2.457-2.458h-1.387V31.12A3.145 3.145 0 0 0 50.1 27.98H10.949a3.145 3.145 0 0 0-3.142 3.142v6.168H6.42a2.461 2.461 0 0 0-2.458 2.457v14.99c0 1.672 1.36 3.031 3.03 3.031h.815v4.205h-5.92a1.245 1.245 0 0 0 0 2.49H73.998a1.245 1.245 0 0 0 0-2.49h-8.591V18.878h10.706a1.244 1.244 0 0 0 1.135-1.756zm-22.65 30.671h-5.205l-.027-8.015 2.483-.015c.05.006.098.015.149.015.057 0 .112-.01.167-.017l2.433-.015v8.047zm-3.845-16.672v6.168h-1.387a2.461 2.461 0 0 0-2.459 2.457v8.047H31.77V30.469h18.332c.36 0 .652.292.652.652zm-40.456 0c0-.36.292-.652.652-.652H29.28v17.324H14.142v-8.047a2.461 2.461 0 0 0-2.458-2.457h-1.387V31.12zm-1.394 8.642c.05.006.098.015.149.015.057 0 .112-.01.167-.017l2.434-.015v8.047H6.437l-.017-8.015 2.483-.015zM6.451 54.737l-.01-4.455h48.157v4.455a.542.542 0 0 1-.541.541H6.993a.542.542 0 0 1-.542-.541zm8.97 3.03h30.208l1.452 4.205H13.968l1.453-4.205zm-5.124 4.205v-4.205h2.49l-1.453 4.205h-1.037zm39.418 0l-1.452-4.205h2.49v4.205h-1.038zm4.421-45.584l5.808-12.896h8.436l5.807 12.896h-20.05z"/>
        <path d="M2.976 21.698c.006.121.03.238.068.348.009.024.012.048.022.072.061.146.15.278.26.39 0 0 0 .003.002.004l.002.001c.225.229.538.371.885.371h37.083c.346 0 .659-.142.885-.37l.002-.002c.003-.002.003-.006.006-.008.107-.11.195-.24.255-.385.011-.025.015-.05.024-.077.037-.107.06-.221.067-.34.002-.037.007-.071.006-.107V1.55c0-.036-.004-.07-.006-.107a1.234 1.234 0 0 0-.067-.34c-.009-.027-.013-.052-.024-.078a1.245 1.245 0 0 0-.255-.384c-.003-.003-.003-.006-.006-.008l-.002-.002a1.24 1.24 0 0 0-.885-.37H4.215c-.347 0-.66.142-.885.37l-.002.002-.003.004a1.245 1.245 0 0 0-.259.39c-.01.023-.013.047-.022.071-.038.11-.062.227-.068.35-.002.033-.007.066-.006.1v20.048c0 .034.004.066.006.1zm31.964-6.43H10.573v-7.39H34.94v7.39zM9.844 17.757H35.67l2.638 2.638H7.206l2.638-2.638zm27.586-1.76V7.149l2.623-2.624V18.62l-2.623-2.623zM35.67 5.389H9.844L7.206 2.75h31.102L35.67 5.39zM8.084 7.149v8.848L5.46 18.62V4.525L8.084 7.15z"/>
    </g>
</svg>
