<svg xmlns="http://www.w3.org/2000/svg" width="72" height="72" viewBox="0 0 72 72">
    <g fill="none" fill-rule="evenodd" stroke="#8D9AA8" stroke-width="2.5" transform="translate(2 2)">
        <path d="M29.694 49.694v4.388a2.194 2.194 0 0 1-2.194 2.193h-7.79M38.306 49.62v4.422a2.24 2.24 0 0 0 2.24 2.24h7.382M11.48 29.302c0-2.574 1.036-4.66 2.314-4.66s1.012 2.086 1.012 4.66c0 2.573.266 4.659-1.012 4.659s-2.313-2.086-2.313-4.66zM56.52 28.372c0 2.573-1.036 4.66-2.314 4.66s-1.012-2.087-1.012-4.66-.266-4.66 1.012-4.66 2.313 2.087 2.313 4.66z"/>
        <ellipse cx="34" cy="42.376" stroke-linecap="round" rx="2.194" ry="3.29"/>
        <path d="M51 35.85H17a2.194 2.194 0 0 1-2.194-2.194V17.978c0-1.211.983-2.193 2.194-2.193h34c1.211 0 2.194.982 2.194 2.193v15.678A2.194 2.194 0 0 1 51 35.85z"/>
        <path stroke-linecap="round" d="M48.344 31.818H19.656a1.097 1.097 0 0 1-1.097-1.096v-9.81c0-.605.491-1.096 1.097-1.096h28.688c.606 0 1.097.491 1.097 1.097v9.809c0 .605-.491 1.096-1.097 1.096zM46.955 67.998c-1.493-6.85-.536-11.716.973-11.716 1.952 0 4.776-.69 6.608 11.717M21.045 67.998c1.493-6.85.174-11.723-1.335-11.723-1.91 0-4.414-.682-6.246 11.724"/>
        <path d="M45.946 15.784c-9.167-5.176-13.623-9.93-13.623-9.93s-2.754 5.509-7.125 9.931M50.94 35.829C47.96 44.218 41.496 50.387 34 50.387c-7.494 0-13.958-6.168-16.94-14.555M12.339 33.031v22.616c0 1.212.982 2.194 2.193 2.194H16.3"/>
        <path d="M55.648 24.642l-.001-2.977a21.729 21.729 0 0 0-.363-4.008C53.071 5.901 41.746-1.835 29.99.377c-10.41 1.96-17.653 11.066-17.642 21.288h-.01v4.017M51.529 57.84h1.802c1.349 0 2.33-.982 2.33-2.194l-.01-23.64"/>
        <path stroke-linecap="round" d="M41.54 57.179c0 2.99-3.376 5.415-7.54 5.415s-7.54-2.424-7.54-5.415M61.757 17.563l5.29-2.457M67.046 33.96l-5.289-2.457M62.558 24.533H68M6.243 31.503l-5.29 2.458M.954 15.106l5.289 2.457M5.442 24.533H0"/>
    </g>
</svg>
