<svg xmlns="http://www.w3.org/2000/svg" width="76" height="67" viewBox="0 0 76 67">
    <g fill="#8D9AA8" fill-rule="nonzero">
        <path d="M38.712 20.421a1.262 1.262 0 0 0 .869-2.178 2.525 2.525 0 0 1-.094-3.569 1.263 1.263 0 0 0-1.831-1.738 5.05 5.05 0 0 0 .186 7.138c.235.223.546.347.87.347zM43.15 18.148a1.263 1.263 0 0 0 1.832 1.738 5.057 5.057 0 0 0-.188-7.138 1.263 1.263 0 0 0-1.738 1.832 2.525 2.525 0 0 1 .094 3.568zM13.585 38.239a1.262 1.262 0 0 0 1.785 1.785c.902-.9 2.362-.9 3.264 0a1.262 1.262 0 1 0 1.785-1.785 4.84 4.84 0 0 0-6.834 0z"/>
        <path d="M75.04 43.044a1.262 1.262 0 0 0-1.694.566 1.17 1.17 0 0 1-.77.62 1.146 1.146 0 0 1-.534.01 17.77 17.77 0 0 0-.062-6.125l-.727-3.878A15.68 15.68 0 0 0 55.849 21.46h-5.458a10.063 10.063 0 0 0-4.948-14.402V5.05h-2.525v1.357a10.18 10.18 0 0 0-2.525-.01V5.049H37.87V7.06a10.064 10.064 0 0 0-4.953 14.399h-8.932a10.843 10.843 0 0 0-6.856 2.436A30.53 30.53 0 0 0 7.504 37.87a13.914 13.914 0 0 1-2.991 5.049H2.525A2.525 2.525 0 0 0 0 45.443v7.573a2.525 2.525 0 0 0 2.525 2.525h4.7l6.01 3.606c.196.118.421.18.65.18h6.312v3.788a3.787 3.787 0 0 0 3.787 3.787h2.524a3.787 3.787 0 0 0 3.787-3.787v-3.14a27.824 27.824 0 0 0 20.197 0v3.14a3.787 3.787 0 0 0 3.787 3.787h2.524a3.787 3.787 0 0 0 3.787-3.787v-3.839c6.296-.546 10.603-5.373 11.235-12.51.15.02.301.032.453.034a3.717 3.717 0 0 0 3.325-2.055 1.262 1.262 0 0 0-.563-1.7zM36.16 11.197a7.514 7.514 0 0 1 1.708-1.306v.207h2.524V8.972a7.634 7.634 0 0 1 2.525-.026v1.152h2.525v-.226a7.564 7.564 0 1 1-9.282 1.325zm33.225 33.74c0 5.474-2.62 11.866-10.058 11.866-.697 0-1.262.565-1.262 1.263v5.049c0 .697-.566 1.262-1.263 1.262H54.28a1.262 1.262 0 0 1-1.263-1.262v-5.05a1.262 1.262 0 0 0-1.774-1.153l-.595.264a25.281 25.281 0 0 1-20.507 0l-.595-.264a1.262 1.262 0 0 0-1.775 1.154v5.049c0 .697-.565 1.262-1.262 1.262h-2.524a1.262 1.262 0 0 1-1.263-1.262v-5.05c0-.697-.565-1.262-1.262-1.262h-7.224l-6.011-3.606a1.262 1.262 0 0 0-.65-.18h-5.05v-7.574H5.05c.335 0 .656-.133.893-.37A16.46 16.46 0 0 0 9.9 38.668a28.001 28.001 0 0 1 8.829-12.82 8.302 8.302 0 0 1 5.255-1.864h11.008a10.08 10.08 0 0 0 13.334 0h7.523a13.153 13.153 0 0 1 12.922 10.73l.728 3.877c.38 2.014.35 4.084-.085 6.087a1.346 1.346 0 0 0-.028.26z"/>
        <path d="M29.033 30.295c0-.697-.565-1.262-1.263-1.262h-7.573a1.262 1.262 0 0 0-1.01 2.02l1.515 2.02a8.878 8.878 0 0 0 7.068 3.534 1.262 1.262 0 0 0 0-2.525 6.335 6.335 0 0 1-5.049-2.525h5.05c.697 0 1.262-.565 1.262-1.262zM37.869 0h2.525v2.525h-2.525zM42.918 0h2.525v2.525h-2.525z"/>
    </g>
</svg>
