<svg xmlns="http://www.w3.org/2000/svg" xmlns:xlink="http://www.w3.org/1999/xlink" width="200" height="40" viewBox="0 0 200 40">
    <defs>
        <path id="a" d="M.03.612h126.96v22.9H.03z"/>
    </defs>
    <g fill="none" fill-rule="evenodd">
        <path fill="#59D829" fill-rule="nonzero" d="M40.94 0l5.855 9.81L52.648 0H40.94zm11.708 0l5.854 9.81L64.355 0H52.648zm-5.854 29.46l5.854-9.81 5.854 9.81H46.794zm-21.01-16.675c1.336.009 2.558.3 3.669.858a8.331 8.331 0 0 1 2.808 2.3 8.159 8.159 0 0 1 1.533 3.291H17.776a8.122 8.122 0 0 1 1.524-3.29 8.183 8.183 0 0 1 2.79-2.3c1.11-.56 2.343-.85 3.695-.86zm11.782 8.1c-.01-1.575-.319-3.042-.93-4.416a11.377 11.377 0 0 0-2.54-3.626 11.8 11.8 0 0 0-3.747-2.458c-1.42-.591-2.937-.891-4.564-.9-1.628.009-3.144.309-4.565.9a11.8 11.8 0 0 0-3.746 2.458 11.39 11.39 0 0 0-2.54 3.625 10.887 10.887 0 0 0 0 8.809 11.862 11.862 0 0 0 2.54 3.666 11.937 11.937 0 0 0 3.746 2.508c1.44.616 2.994.933 4.565.933a12.28 12.28 0 0 0 4.366-.8 11.81 11.81 0 0 0 3.651-2.215 11.206 11.206 0 0 0 2.575-3.335H32.09a8.35 8.35 0 0 1-1.688 1.592 8.026 8.026 0 0 1-7.467.933 8.138 8.138 0 0 1-2.394-1.432 8.362 8.362 0 0 1-1.774-2.117c-.474-.8-.801-1.659-.99-2.576h19.79v-1.55zM3.463 9.835H0v22h3.463V19.684c.008-1.125.223-2.117.637-2.975a6.193 6.193 0 0 1 1.705-2.165 7.657 7.657 0 0 1 2.454-1.317 9.534 9.534 0 0 1 2.903-.441v-3.3c-1.586.008-3.032.316-4.333.908a10.143 10.143 0 0 0-3.366 2.441V9.836z"/>
        <path fill="#FFF" fill-rule="nonzero" d="M40.94 39.272h11.707l-5.852-9.81-5.855 9.81zm11.708 0h11.707l-5.853-9.81-5.854 9.81zm-5.854-29.46l5.854 9.81 5.854-9.81H46.794z"/>
        <g transform="translate(72.358 8.872)">
            <mask id="b" fill="#fff">
                <use xlink:href="#a"/>
            </mask>
            <path fill="#FFF" fill-rule="nonzero" d="M126.11 6.363c-.129-1.125-.525-2.117-1.197-2.984-.672-.857-1.576-1.533-2.705-2.016-1.128-.492-2.445-.741-3.951-.75-1.723.016-3.17.284-4.333.825-1.162.534-2.04 1.259-2.634 2.167a5.514 5.514 0 0 0-.888 3.058c0 1.159.277 2.159.826 2.991.561.834 1.422 1.534 2.584 2.1 1.155.559 2.635 1.016 4.444 1.359 1.37.258 2.464.533 3.281.824.82.293 1.412.651 1.774 1.085.353.441.535.999.526 1.69a2.672 2.672 0 0 1-.698 1.784c-.466.517-1.11.925-1.947 1.216-.825.293-1.807.442-2.935.45-.991-.008-1.886-.166-2.688-.483-.8-.316-1.455-.733-1.963-1.25-.508-.516-.819-1.091-.93-1.716h-3.152c.077 1.292.482 2.433 1.223 3.424.732.984 1.738 1.759 3.014 2.317 1.283.567 2.781.85 4.496.859 1.894-.008 3.496-.292 4.789-.859 1.3-.558 2.28-1.333 2.944-2.316.663-.992 1-2.133 1-3.425.008-1.208-.268-2.25-.82-3.117-.55-.866-1.43-1.592-2.634-2.184-1.199-.59-2.773-1.074-4.712-1.449-1.231-.233-2.239-.5-3.004-.8-.768-.3-1.336-.658-1.688-1.066a2.071 2.071 0 0 1-.526-1.434 2.21 2.21 0 0 1 .594-1.483c.396-.434.939-.784 1.636-1.034.69-.25 1.499-.376 2.42-.384.895.008 1.679.118 2.343.343.663.224 1.196.525 1.602.917.396.39.654.832.758 1.341h3.152zM95.573.613c-1.713.008-3.22.375-4.53 1.109-1.3.733-2.358 1.783-3.169 3.141-.585-1.492-1.515-2.576-2.772-3.25-1.267-.675-2.886-1.008-4.875-1-1.422.008-2.713.267-3.86.784a8.569 8.569 0 0 0-2.961 2.216V.963h-3.462v22h3.462V11.512c.009-1.774.284-3.225.835-4.35.553-1.116 1.344-1.941 2.36-2.466 1.016-.526 2.222-.792 3.626-.784 1.679 0 2.946.542 3.79 1.616.851 1.084 1.273 2.71 1.273 4.884v12.55h3.464v-11.45c.008-1.774.282-3.225.833-4.35.553-1.116 1.345-1.941 2.36-2.466 1.017-.526 2.223-.792 3.626-.784 1.68 0 2.946.542 3.79 1.616.852 1.084 1.274 2.71 1.274 4.884v12.55h3.463v-12.55c0-2.324-.294-4.207-.905-5.649-.604-1.441-1.533-2.5-2.79-3.166C99.137.93 97.536.605 95.572.613zM52.994 3.912c1.155.008 2.231.216 3.213.642A8.07 8.07 0 0 1 60.53 8.87a8.12 8.12 0 0 1 0 6.258 8.435 8.435 0 0 1-1.732 2.616 8.324 8.324 0 0 1-2.592 1.8 8.025 8.025 0 0 1-3.214.667 8.033 8.033 0 0 1-3.21-.666 8.317 8.317 0 0 1-2.593-1.8 8.435 8.435 0 0 1-1.73-2.617 8.102 8.102 0 0 1-.63-3.117 8.136 8.136 0 0 1 .63-3.142 8.06 8.06 0 0 1 1.731-2.574 8.013 8.013 0 0 1 2.59-1.742c.982-.425 2.059-.633 3.212-.642h.001zm0 19.6c1.571 0 3.125-.318 4.565-.934a11.956 11.956 0 0 0 3.747-2.508 11.846 11.846 0 0 0 2.54-3.666c.613-1.386.93-2.88.93-4.392a10.867 10.867 0 0 0-.93-4.416 11.379 11.379 0 0 0-2.54-3.625 11.82 11.82 0 0 0-3.747-2.459c-1.42-.592-2.938-.89-4.566-.9-1.627.009-3.143.31-4.563.9a11.803 11.803 0 0 0-3.746 2.46 11.394 11.394 0 0 0-2.54 3.624 10.872 10.872 0 0 0-.93 4.416c.008 1.551.318 3.018.93 4.392a11.863 11.863 0 0 0 2.54 3.667 11.937 11.937 0 0 0 3.746 2.508c1.44.616 2.993.934 4.563.934l.001-.001zm-27.179-19.6c1.155.008 2.23.216 3.213.642.972.407 1.852.999 2.59 1.742A8.061 8.061 0 0 1 33.35 8.87c.415.976.62 2.026.63 3.142a8.088 8.088 0 0 1-.63 3.117 8.42 8.42 0 0 1-1.731 2.616 8.317 8.317 0 0 1-2.591 1.8 8.028 8.028 0 0 1-3.213.667 8.033 8.033 0 0 1-3.212-.666 8.315 8.315 0 0 1-2.592-1.8 8.435 8.435 0 0 1-1.731-2.617 8.072 8.072 0 0 1-.629-3.117 8.12 8.12 0 0 1 .629-3.142 8.06 8.06 0 0 1 1.731-2.574 8.011 8.011 0 0 1 2.592-1.742c.982-.425 2.058-.633 3.212-.642zm0 19.6c1.57 0 3.125-.317 4.565-.934a11.934 11.934 0 0 0 3.745-2.508 11.846 11.846 0 0 0 2.54-3.666c.612-1.376.922-2.842.932-4.392-.01-1.574-.32-3.042-.932-4.416a11.379 11.379 0 0 0-2.54-3.625 11.799 11.799 0 0 0-3.745-2.459c-1.42-.592-2.937-.89-4.565-.9-1.628.009-3.143.31-4.565.9a11.813 11.813 0 0 0-3.745 2.46 11.368 11.368 0 0 0-2.54 3.624 10.872 10.872 0 0 0-.93 4.416c.007 1.551.318 3.018.93 4.392a11.835 11.835 0 0 0 2.54 3.667 11.949 11.949 0 0 0 3.745 2.508c1.44.616 2.994.934 4.565.934v-.001zM3.492.963H.03v22h3.462v-12.15c.009-1.125.224-2.117.637-2.975.396-.839.979-1.58 1.705-2.168A7.673 7.673 0 0 1 8.29 4.355a9.542 9.542 0 0 1 2.903-.442v-3.3C9.607.62 8.16.93 6.86 1.522a10.124 10.124 0 0 0-3.367 2.441v-3h-.001z" mask="url(#b)"/>
        </g>
    </g>
</svg>
