<svg xmlns="http://www.w3.org/2000/svg" width="35" height="30" viewBox="0 0 35 30">
    <g fill="#FFDC17" fill-rule="nonzero">
        <path d="M10.296 1.611L9.3.906 9.265.88 9.201.854 8.474.508l.022.051C7.807.277 7.085.076 6.298.076 2.818.076 0 3.005 0 6.618s2.822 6.542 6.298 6.542c1.116 0 2.147-.325 3.057-.856-.312 3.498-2.074 8.599-8.53 13.802-.902.727-1.069 2.078-.367 3.015.41.551 1.021.834 1.637.834.445 0 .89-.15 1.27-.45 7.923-6.396 9.902-12.963 10.168-17.35.453-5.61-1.249-8.56-2.805-10.1l-.432-.444zM31.448 2.056l-.437-.445-.992-.705-.034-.026-.068-.026-.727-.346.021.051C28.523.277 27.796.076 27.01.076c-3.476 0-6.29 2.929-6.29 6.542s2.814 6.542 6.299 6.542c1.116 0 2.146-.325 3.057-.856-.308 3.498-2.07 8.599-8.526 13.802-.906.727-1.069 2.078-.367 3.015.41.551 1.021.834 1.637.834.445 0 .89-.15 1.27-.45 7.927-6.396 9.902-12.963 10.172-17.35.453-5.61-1.248-8.56-2.813-10.1z"/>
    </g>
</svg>
