<svg xmlns="http://www.w3.org/2000/svg" width="28" height="30" viewBox="0 0 28 30">
    <g fill="#CFD6DD" fill-rule="nonzero">
        <path d="M5.642 5.946c4.427-4.005 11.051-4.066 15.539-.41l-3.557.134a.824.824 0 0 0-.796.857.829.829 0 0 0 .826.796h.031l5.461-.202a.825.825 0 0 0 .796-.826v-.062-.036l-.202-5.4a.827.827 0 0 0-1.653.06l.129 3.387c-2.223-1.819-4.96-2.872-7.886-3.019a13.48 13.48 0 0 0-9.796 3.496 13.599 13.599 0 0 0-4.09 13.292.823.823 0 0 0 .998.606.828.828 0 0 0 .606-.998A11.945 11.945 0 0 1 5.642 5.946zM27.09 11.97a.828.828 0 0 0-.999-.606.828.828 0 0 0-.606.998 11.932 11.932 0 0 1-3.594 11.675 11.9 11.9 0 0 1-8.002 3.08c-2.724 0-5.443-.924-7.635-2.749l3.6-.324a.826.826 0 0 0 .747-.9.821.821 0 0 0-.9-.747l-5.442.49a.826.826 0 0 0-.747.9l.49 5.442a.825.825 0 0 0 .82.753c.024 0 .049 0 .073-.006a.826.826 0 0 0 .747-.9l-.294-3.312a13.503 13.503 0 0 0 7.855 2.994A13.513 13.513 0 0 0 23 25.262a13.595 13.595 0 0 0 4.09-13.292z"/>
    </g>
</svg>
