<svg xmlns="http://www.w3.org/2000/svg" width="80" height="73" viewBox="0 0 80 73">
    <g fill="#8D9AA8" fill-rule="nonzero">
        <path d="M3.514 42.131H1.175c-.65 0-1.175.526-1.175 1.175V45.5a1.175 1.175 0 1 0 2.35 0V44.48h1.164a1.175 1.175 0 1 0 0-2.35zM78.825 42.131h-2.34a1.175 1.175 0 1 0 0 2.35h1.165V45.5a1.175 1.175 0 1 0 2.35 0v-2.194c0-.649-.526-1.175-1.175-1.175zM3.514 68.78H2.35v-1.02a1.175 1.175 0 1 0-2.35 0v2.194c0 .65.526 1.175 1.175 1.175h2.34a1.175 1.175 0 1 0 0-2.35zM78.825 66.586c-.65 0-1.175.526-1.175 1.175v1.018h-1.164a1.175 1.175 0 1 0 0 2.35h2.339c.65 0 1.175-.526 1.175-1.175v-2.193c0-.65-.526-1.175-1.175-1.175zM40.014 16.73c-.65 0-1.175.526-1.175 1.175v4.7a1.175 1.175 0 1 0 2.35 0v-4.7c0-.65-.526-1.175-1.175-1.175z"/>
        <path d="M71.04 50.112V35.545a1.175 1.175 0 1 0-2.35 0v14.567a4.772 4.772 0 0 0-2.117 1.176l-3.38-1.661a1.175 1.175 0 0 0-1.037 2.11l3.161 1.552a4.757 4.757 0 0 0-.178 2.124l-21.39 9.214a4.784 4.784 0 0 0-2.56-1.66V41.425a1.175 1.175 0 0 0 .912-2.162l-.912-.448v-3.12a4.783 4.783 0 0 0 3.534-5.409l21.379-9.368a4.784 4.784 0 0 0 2.588 1.696v4.47a1.175 1.175 0 1 0 2.35 0v-4.47a4.783 4.783 0 0 0 3.6-4.628 4.78 4.78 0 0 0-4.775-4.774c-1.527 0-2.89.722-3.763 1.842L44.723 5.686a4.78 4.78 0 0 0-4.71-5.555 4.78 4.78 0 0 0-4.708 5.556l-21.4 9.377a4.768 4.768 0 0 0-3.77-1.852 4.78 4.78 0 0 0-4.775 4.774 4.782 4.782 0 0 0 3.628 4.635v27.485A4.782 4.782 0 0 0 5.36 54.74a4.78 4.78 0 0 0 4.775 4.774 4.77 4.77 0 0 0 3.837-1.938l5.57 2.4a1.172 1.172 0 0 0 1.544-.615 1.175 1.175 0 0 0-.615-1.544L14.862 55.4a4.753 4.753 0 0 0-.175-2.1l3.186-1.565a1.175 1.175 0 0 0-1.037-2.11l-3.399 1.671a4.772 4.772 0 0 0-2.099-1.177V22.607a4.786 4.786 0 0 0 2.567-1.698l21.4 9.377a4.783 4.783 0 0 0 3.535 5.409v3.12l-.913.448a1.175 1.175 0 0 0 .912 2.162v21.542a4.783 4.783 0 0 0-2.56 1.659l-8.182-3.524a1.175 1.175 0 1 0-.93 2.158l8.145 3.508a4.78 4.78 0 0 0 4.701 5.6 4.78 4.78 0 0 0 4.702-5.599l21.32-9.183a4.77 4.77 0 0 0 3.83 1.928 4.78 4.78 0 0 0 4.774-4.774 4.782 4.782 0 0 0-3.599-4.628zm-1.175-34.55a2.427 2.427 0 0 1 2.425 2.424 2.427 2.427 0 0 1-2.425 2.425 2.427 2.427 0 0 1-2.424-2.425 2.427 2.427 0 0 1 2.424-2.424zM12.56 54.74a2.427 2.427 0 0 1-2.424 2.424A2.427 2.427 0 0 1 7.71 54.74a2.427 2.427 0 0 1 2.425-2.424 2.427 2.427 0 0 1 2.424 2.424zm-.184-35.83l-.019.037-.01.028a2.426 2.426 0 0 1-2.211 1.436 2.427 2.427 0 0 1-2.425-2.425 2.427 2.427 0 0 1 2.425-2.424 2.427 2.427 0 0 1 2.24 3.348zM40.014 2.481a2.427 2.427 0 0 1 2.424 2.425 2.427 2.427 0 0 1-2.424 2.424 2.427 2.427 0 0 1-2.424-2.424 2.427 2.427 0 0 1 2.424-2.425zM36.25 28.135l-21.404-9.38a4.781 4.781 0 0 0 0-1.538L36.25 7.838a4.785 4.785 0 0 0 2.589 1.695v3.672a1.175 1.175 0 1 0 2.35 0V9.533a4.784 4.784 0 0 0 2.589-1.696l21.378 9.369a4.782 4.782 0 0 0 0 1.561l-21.378 9.368a4.774 4.774 0 0 0-3.093-1.794 1.169 1.169 0 0 0-1.342 0 4.774 4.774 0 0 0-3.093 1.794zm1.34 2.932a2.427 2.427 0 0 1 2.424-2.424 2.427 2.427 0 0 1 2.424 2.424 2.427 2.427 0 0 1-2.424 2.425 2.427 2.427 0 0 1-2.424-2.425zm2.424 38.952a2.427 2.427 0 0 1-2.424-2.425 2.427 2.427 0 0 1 2.424-2.424 2.427 2.427 0 0 1 2.424 2.424 2.427 2.427 0 0 1-2.424 2.425zm29.851-12.855a2.426 2.426 0 0 1-2.204-1.421 1.188 1.188 0 0 0-.043-.119l-.028-.055a2.406 2.406 0 0 1 .163-2.015 1.17 1.17 0 0 0 .194-.281l.01-.022a2.42 2.42 0 0 1 1.908-.935 2.427 2.427 0 0 1 2.425 2.424 2.427 2.427 0 0 1-2.425 2.424z"/>
        <path d="M35.282 41.872a1.175 1.175 0 0 0-1.573-.536l-4.218 2.073a1.175 1.175 0 0 0 1.037 2.109l4.218-2.073c.582-.286.822-.99.536-1.573zM26.846 46.018a1.175 1.175 0 0 0-1.573-.537l-4.219 2.073a1.175 1.175 0 0 0 1.037 2.11l4.218-2.073c.583-.287.823-.99.537-1.573zM50.538 43.409l-4.218-2.073a1.175 1.175 0 0 0-1.037 2.11l4.218 2.072a1.175 1.175 0 0 0 1.036-2.11zM58.974 47.554l-4.218-2.072a1.175 1.175 0 0 0-1.036 2.109l4.218 2.072a1.175 1.175 0 0 0 1.036-2.11z"/>
    </g>
</svg>
