<svg xmlns="http://www.w3.org/2000/svg" width="71" height="71" viewBox="0 0 71 71">
    <g fill="#8D9AA8" fill-rule="nonzero">
        <path d="M68.03 31.95H63.9v-7.417a3.237 3.237 0 0 0-3.233-3.233H56.8v-2.857l-.586-.585v-.003l-8.635-8.633L38.357 0H9.467v13.017H3.233A3.237 3.237 0 0 0 0 16.25v51.696h.007a3.01 3.01 0 0 0 .618 1.864A3.012 3.012 0 0 0 3.035 71H56c1.368 0 2.573-.922 2.9-2.145L71 35.676v-.21c0-2.037-1.25-3.516-2.97-3.516zm-7.363-8.283c.477 0 .866.388.866.866v7.417H56.8v-8.283h3.867zM39.05 4.04L52.76 17.75H39.05V4.041zM11.833 2.367h24.85v17.75h17.75V31.95H15.065c-.17 0-.336.014-.5.041-1.152.192-2.113 1.032-2.4 2.104l-.332.914V2.367zM2.367 16.25c0-.479.389-.867.866-.867h6.234v26.075l-7.1 19.364V16.25zm54.278 51.89a.669.669 0 0 1-.645.493H3.035a.653.653 0 0 1-.53-.262c-.074-.097-.19-.303-.145-.483l7.107-19.492v.006l4.922-13.495.031-.097a.67.67 0 0 1 .645-.493H68.03c.45 0 .564.646.594.969L56.645 68.14z"/>
        <path d="M18.933 20.117h11.834a1.183 1.183 0 1 0 0-2.367H18.933a1.183 1.183 0 1 0 0 2.367zM18.933 11.833h11.834a1.183 1.183 0 1 0 0-2.366H18.933a1.183 1.183 0 1 0 0 2.366zM18.933 28.4h28.4a1.183 1.183 0 1 0 0-2.367h-28.4a1.183 1.183 0 1 0 0 2.367z"/>
    </g>
</svg>
