<svg xmlns="http://www.w3.org/2000/svg" width="70" height="70" viewBox="0 0 70 70">
    <g fill="#8D9AA8" fill-rule="nonzero">
        <path d="M66.944 15.059l-1.697-.53c-.424-.106-.849-.213-1.379-.213-1.909 0-3.605 1.273-4.242 3.076l-.954 2.863V18.028c0-.318-.212-.636-.424-.848L40.856.318A1.146 1.146 0 0 0 40.113 0H6.072c-.636 0-1.06.424-1.06 1.06v3.288H1.088c-.637 0-1.06.424-1.06 1.06v63.523c0 .636.424 1.06 1.06 1.06h51.539c.636 0 1.06-.424 1.06-1.06v-3.287h3.924c.637 0 1.06-.425 1.06-1.06V50.266l2.97-4.03.106-.318 7.954-25.346c.848-2.333-.424-4.772-2.757-5.514zM41.174 3.606l13.892 13.362H41.174V3.606zM51.567 67.87H2.148V6.469h2.863v58.114c0 .637.425 1.06 1.06 1.06h45.495v2.228zm5.09-4.348H7.132V2.12h31.92v15.907c0 .637.425 1.06 1.061 1.06h16.544v7.954l-4.984 15.695v.318l.212 13.469c0 .424.318.848.742.954.424.106.954 0 1.167-.424l2.863-3.818v10.287zM53.9 53.236l-.213-8.802 5.303 1.697-5.09 7.105zm13.892-33.299l-7.636 24.285-6.15-2.015 7.635-24.179c.424-1.166 1.697-1.909 2.863-1.484l1.697.53c1.273.318 2.015 1.697 1.591 2.863z"/>
        <path d="M14.344 19.089h15.27c.637 0 1.061-.425 1.061-1.06V7.21c0-.636-.424-1.06-1.06-1.06H14.344c-.637 0-1.06.424-1.06 1.06v10.817c0 .53.53 1.06 1.06 1.06zm1.06-10.817h13.15v8.696h-13.15V8.272zM12.223 29.057H44.46c.637 0 1.06-.424 1.06-1.06 0-.637-.423-1.06-1.06-1.06H12.223c-.637 0-1.06.424-1.06 1.06 0 .636.423 1.06 1.06 1.06zM12.223 36.799H44.46c.637 0 1.06-.424 1.06-1.06 0-.637-.423-1.061-1.06-1.061H12.223c-.637 0-1.06.424-1.06 1.06 0 .637.423 1.06 1.06 1.06zM12.223 44.54H44.46c.637 0 1.06-.424 1.06-1.06 0-.636-.423-1.06-1.06-1.06H12.223c-.637 0-1.06.424-1.06 1.06 0 .636.423 1.06 1.06 1.06zM45.416 51.221c0-.636-.424-1.06-1.06-1.06H12.222c-.637 0-1.06.424-1.06 1.06 0 .636.424 1.06 1.06 1.06H44.46c.53 0 .955-.53.955-1.06zM48.915 57.902H32.902c-.636 0-1.06.424-1.06 1.06 0 .637.424 1.061 1.06 1.061H48.81c.637 0 1.06-.424 1.06-1.06 0-.637-.423-1.06-.954-1.06z"/>
    </g>
</svg>
